<?xml version="1.0" standalone="no"?>
<!DOCTYPE svg PUBLIC "-//W3C//DTD SVG 20010904//EN"
 "http://www.w3.org/TR/2001/REC-SVG-20010904/DTD/svg10.dtd">
<svg version="1.0" xmlns="http://www.w3.org/2000/svg"
 width="1890.000000pt" height="1071.000000pt" viewBox="0 0 1890.000000 1071.000000"
 preserveAspectRatio="xMidYMid meet">
<metadata>
Created by potrace 1.16, written by Peter Selinger 2001-2019
</metadata>
<g transform="translate(0.000000,1071.000000) scale(0.100000,-0.100000)"
fill="#000000" stroke="none">
<path d="M0 5355 l0 -5355 9450 0 9450 0 0 5355 0 5355 -9450 0 -9450 0 0
-5355z m7686 5140 c403 -71 758 -334 941 -700 98 -194 136 -360 136 -585 0
-234 -39 -398 -145 -601 -130 -251 -330 -444 -595 -575 l-103 -50 85 -33 c445
-173 799 -597 904 -1083 106 -489 -17 -998 -336 -1390 -231 -284 -571 -473
-928 -517 -58 -7 -344 -11 -792 -11 l-703 0 0 2780 0 2780 724 0 c608 0 738
-2 812 -15z m4854 -2765 l0 -2780 -305 0 -305 0 0 2780 0 2780 305 0 305 0 0
-2780z m-6841 2440 c16 -75 13 -200 -9 -441 -47 -497 -46 -432 -10 -566 17
-65 85 -281 150 -479 179 -541 240 -776 256 -969 11 -142 -34 -284 -116 -363
-21 -21 -92 -68 -157 -105 l-118 -66 -68 -321 -68 -320 39 -68 c190 -327 171
-691 -50 -969 l-50 -63 261 -437 260 -438 4068 1 4068 2 240 31 c1030 135
1363 248 2357 798 248 137 425 274 674 519 159 157 174 175 212 254 58 121 75
202 75 340 -1 183 -45 316 -128 389 -39 34 -139 87 -220 116 -27 10 -54 22
-59 26 -10 8 126 192 228 309 l66 75 -34 3 c-101 9 -338 -97 -484 -216 -29
-24 -55 -42 -57 -40 -8 8 84 267 129 365 48 105 125 250 183 346 19 32 33 61
30 64 -14 13 -144 -44 -237 -106 -73 -48 -199 -168 -271 -259 -81 -101 -129
-190 -174 -320 -3 -8 -63 61 -141 160 -75 95 -142 179 -149 187 -11 11 -19 3
-53 -45 -147 -217 -219 -506 -192 -771 32 -319 163 -579 385 -766 82 -69 239
-149 340 -173 98 -23 277 -22 372 3 39 11 70 16 68 12 -10 -16 -206 -180 -277
-232 -116 -86 -255 -171 -411 -252 l-141 -74 -99 51 c-465 239 -781 708 -862
1281 -19 134 -19 378 1 518 79 571 415 1058 893 1294 343 170 748 197 1099 74
568 -200 977 -725 1066 -1368 20 -144 20 -384 0 -520 -49 -336 -174 -627 -377
-879 -37 -45 -67 -84 -67 -86 0 -2 93 25 208 60 114 35 211 64 215 64 15 0
-92 -193 -158 -285 -253 -354 -674 -613 -1435 -882 l-165 -58 315 -6 c173 -4
325 -7 338 -8 l22 -1 0 -2270 0 -2270 -7491 0 -7491 0 6 298 c4 163 11 736 17
1273 l11 975 -86 255 c-168 498 -195 675 -177 1138 6 135 13 336 17 446 l7
200 -59 45 c-143 108 -329 308 -444 480 -163 242 -243 471 -242 695 0 165 37
294 122 428 l38 60 -49 41 c-139 116 -209 280 -196 457 7 83 48 221 92 309
l25 49 -64 104 c-82 133 -159 285 -187 373 -29 86 -30 201 -3 364 15 91 19
170 19 380 0 298 -5 332 -87 553 -35 93 -43 107 -63 107 -92 0 -379 122 -434
185 -31 36 -33 42 -29 95 5 65 40 122 105 170 51 37 166 76 273 90 112 16 481
16 595 1 276 -37 601 -133 660 -196 113 -120 582 -851 773 -1205 l51 -96 108
13 c173 20 596 27 787 14 93 -6 171 -9 174 -6 10 9 -19 175 -55 317 -62 244
-47 348 78 568 109 191 387 557 559 734 224 231 469 391 703 461 45 13 96 24
114 24 30 1 32 -2 42 -49z m4666 -1570 c310 -30 503 -115 709 -312 206 -196
333 -427 398 -721 23 -101 23 -109 21 -782 -1 -374 -5 -942 -9 -1262 l-6 -583
-618 0 c-339 0 -706 3 -815 7 l-198 6 -56 38 c-167 112 -329 297 -424 486 -93
184 -127 322 -134 543 -6 193 8 295 62 457 67 202 161 351 314 504 196 196
410 310 688 366 72 15 132 18 336 16 195 -1 247 1 247 11 0 28 -40 166 -65
227 -61 145 -174 280 -278 333 -97 49 -166 57 -504 63 l-313 5 0 304 0 304
268 0 c147 0 317 -5 377 -10z m4451 -59 c332 -68 635 -248 849 -502 114 -136
111 -130 82 -177 -135 -212 -230 -508 -259 -797 l-12 -130 -8 75 c-53 523
-457 939 -913 941 -176 1 -318 -39 -457 -130 -510 -333 -645 -1092 -289 -1631
49 -75 173 -203 246 -255 158 -112 298 -158 485 -158 214 -1 376 59 548 203
204 170 357 466 379 732 3 37 9 65 13 63 4 -2 10 -41 14 -85 22 -264 112 -522
281 -806 l19 -31 -59 -79 c-78 -105 -241 -265 -342 -337 -165 -117 -379 -211
-578 -252 -122 -26 -337 -31 -473 -11 -818 121 -1405 915 -1341 1818 58 822
629 1474 1375 1568 109 14 326 4 440 -19z"/>
<path d="M6920 9130 l0 -732 248 4 c239 4 250 5 327 31 225 78 401 255 472
474 37 113 43 278 14 394 -54 217 -198 392 -398 485 -120 56 -174 65 -430 71
l-233 6 0 -733z"/>
<path d="M6920 6531 l0 -861 243 0 c133 0 271 5 307 10 286 46 538 240 657
508 69 156 87 384 44 547 -82 311 -322 548 -633 626 -70 17 -126 21 -350 26
l-268 6 0 -862z"/>
<path d="M5245 9499 c-264 -270 -389 -442 -445 -609 -26 -75 -30 -186 -11
-244 13 -37 12 -41 -47 -165 -123 -255 -122 -388 5 -653 55 -115 57 -118 97
-129 23 -6 70 -19 105 -30 102 -31 136 -25 197 33 l31 29 26 -63 c39 -91 66
-171 91 -271 l23 -89 59 89 c88 132 229 272 352 348 1 1 -30 71 -69 156 -157
339 -161 357 -218 919 -27 263 -41 452 -49 654 l-7 168 -140 -143z"/>
<path d="M1542 9250 c12 -16 69 -81 126 -144 l104 -116 -26 -219 c-41 -338
-49 -482 -37 -624 6 -67 13 -136 17 -153 l6 -30 96 -11 c88 -9 98 -12 123 -41
48 -54 64 -127 64 -302 0 -85 -4 -213 -8 -285 l-8 -130 83 128 c192 296 397
563 505 657 21 18 57 50 80 72 l43 38 -66 102 c-71 109 -156 258 -249 433 -72
137 -134 235 -192 303 -112 132 -300 234 -601 325 l-84 26 24 -29z"/>
<path d="M3165 7721 c-93 -52 -141 -95 -230 -206 -101 -126 -157 -173 -273
-235 l-97 -51 85 5 c50 4 131 19 195 37 125 35 217 45 291 32 l51 -10 32 221
c34 242 34 246 24 246 -5 0 -39 -18 -78 -39z"/>
<path d="M4284 7700 c-64 -45 -78 -85 -80 -221 -1 -110 -3 -120 -38 -200 -21
-46 -44 -99 -52 -118 -14 -32 -14 -33 3 -27 50 20 146 81 186 119 l44 43 79
-8 c43 -5 106 -7 139 -3 62 6 181 40 190 55 3 4 -26 31 -64 59 -78 58 -120
101 -209 218 -95 123 -124 135 -198 83z"/>
<path d="M4442 7028 c-78 -29 -162 -112 -229 -227 -36 -61 -80 -119 -122 -160
-36 -36 -59 -62 -50 -59 9 4 57 9 106 13 l90 7 54 -41 c80 -62 204 -120 282
-134 96 -16 197 6 329 72 110 56 127 59 245 36 43 -8 81 -15 86 -15 21 0 -39
83 -95 131 -44 37 -72 72 -93 114 -46 91 -153 199 -239 239 -95 45 -122 51
-131 28 -3 -9 -22 -45 -41 -80 -42 -74 -46 -73 -93 23 -18 35 -35 66 -39 69
-4 2 -31 -5 -60 -16z"/>
<path d="M2577 6956 c-110 -45 -220 -152 -276 -270 -13 -26 -49 -68 -87 -101
-67 -60 -125 -145 -87 -131 10 4 61 14 114 23 l96 16 114 -56 c63 -30 135 -60
161 -66 78 -18 176 -13 249 13 63 22 191 97 236 138 20 18 27 19 110 9 131
-16 131 -16 76 27 -56 45 -84 80 -143 182 -60 102 -131 176 -205 211 -33 16
-67 29 -75 29 -8 -1 -30 -32 -50 -72 -19 -39 -40 -73 -46 -75 -7 -2 -29 30
-50 72 -45 86 -48 87 -137 51z"/>
<path d="M3318 6904 c-16 -8 -28 -16 -28 -18 0 -2 13 -34 29 -70 38 -84 51
-155 51 -279 l0 -99 -102 -115 c-57 -63 -113 -127 -125 -142 l-23 -28 24 -22
24 -22 136 153 136 153 0 116 c0 63 -5 142 -11 174 -9 50 -61 186 -78 207 -3
3 -18 0 -33 -8z"/>
<path d="M4913 5756 c-111 -121 -139 -205 -153 -451 -13 -237 -39 -309 -135
-374 -117 -79 -230 -115 -365 -115 -139 0 -197 20 -263 91 -28 31 -76 83 -106
115 -30 32 -52 59 -50 61 2 2 31 11 64 21 162 49 326 166 372 266 47 104 38
168 -37 252 -68 76 -146 126 -252 160 -149 48 -173 41 -307 -86 -111 -105
-173 -134 -235 -110 -33 13 -9 98 48 173 14 19 24 36 22 38 -2 2 -36 -8 -77
-23 -281 -101 -369 -215 -311 -402 47 -150 141 -220 357 -267 44 -10 84 -20
88 -22 9 -5 -84 -186 -112 -217 -9 -10 -30 -25 -47 -32 -39 -16 -305 -38 -393
-32 -124 9 -192 68 -253 221 -32 82 -32 82 -36 293 l-4 210 -53 32 c-63 38
-82 39 -152 10 -51 -21 -53 -23 -53 -59 0 -45 18 -66 65 -75 l35 -6 0 -192 c0
-215 8 -257 67 -365 35 -65 108 -166 137 -190 21 -18 132 -304 163 -421 22
-81 26 -126 32 -305 6 -203 8 -212 34 -267 42 -86 98 -130 215 -167 255 -81
384 -92 622 -53 74 13 176 29 226 37 160 25 240 67 303 158 28 42 28 43 34
237 8 310 48 485 159 707 33 67 74 130 111 172 107 120 183 249 213 358 8 32
19 131 24 221 7 122 14 174 28 205 19 43 66 90 109 110 36 16 32 79 -6 118
-16 16 -38 29 -49 29 -12 0 -45 -27 -79 -64z m-1359 -1038 c31 -64 37 -88 46
-191 10 -111 65 -475 73 -483 2 -2 31 83 64 189 46 144 64 218 72 295 12 108
22 142 65 210 l26 41 52 -18 53 -18 7 -124 c10 -188 25 -230 128 -374 69 -96
89 -134 106 -200 16 -60 18 -159 4 -186 -6 -10 -58 -51 -115 -89 -57 -39 -137
-100 -177 -136 -102 -93 -129 -104 -260 -104 -59 0 -119 5 -133 10 -15 6 -64
44 -109 86 -44 42 -119 101 -166 131 -117 77 -138 98 -146 148 -7 49 9 141 36
202 10 23 50 87 89 141 39 54 82 123 95 153 26 56 46 180 46 281 l0 58 48 24
c26 14 50 25 54 26 4 0 23 -33 42 -72z m836 -32 c0 -2 -25 -98 -55 -214 -30
-116 -55 -215 -55 -219 0 -4 -22 39 -48 97 -83 181 -79 156 -34 254 l41 86 75
0 c42 0 76 -2 76 -4z m-1221 -163 l42 -87 -58 -128 c-31 -70 -60 -125 -64
-120 -5 6 -109 400 -109 415 0 4 33 7 74 7 l74 0 41 -87z"/>
<path d="M6031 3105 c-77 -24 -121 -84 -121 -164 0 -115 84 -181 230 -181 145
0 230 66 230 180 0 115 -86 181 -234 179 -34 0 -81 -6 -105 -14z"/>
<path d="M10780 3090 c-41 -4 -148 -11 -237 -15 l-163 -8 0 -918 0 -919 245 0
245 0 0 935 c0 514 -3 934 -7 934 -5 -1 -42 -5 -83 -9z"/>
<path d="M15570 3090 c-41 -4 -148 -11 -237 -15 l-163 -8 0 -918 0 -919 245 0
245 0 0 935 c0 514 -3 934 -7 934 -5 -1 -42 -5 -83 -9z"/>
<path d="M2944 2152 l-271 -917 100 -3 c55 -1 102 -1 104 2 3 2 31 91 62 198
l57 193 278 0 279 0 53 -193 c29 -107 54 -196 57 -198 2 -2 123 -3 268 -2
l264 3 -255 917 -255 918 -235 0 -235 0 -271 -918z m446 78 c56 -212 103 -393
106 -402 5 -17 -10 -18 -221 -18 -178 0 -226 3 -222 13 2 6 55 191 118 410 62
219 115 395 116 390 1 -4 48 -181 103 -393z"/>
<path d="M12000 2150 l0 -920 265 0 265 0 0 460 0 460 220 0 220 0 0 -460 0
-460 265 0 265 0 0 920 0 920 -265 0 -265 0 0 -370 0 -370 -220 0 -220 0 0
370 0 370 -265 0 -265 0 0 -920z"/>
<path d="M4700 2614 c-57 -7 -166 -15 -242 -19 l-138 -7 0 -679 0 -679 244 0
245 0 3 438 c3 421 4 439 26 504 52 156 157 244 229 193 12 -9 27 -32 33 -53
6 -23 10 -231 10 -559 l0 -523 245 0 246 0 -3 583 -3 582 -23 50 c-50 109
-139 164 -277 172 -159 10 -291 -42 -412 -163 l-72 -72 -3 121 -3 122 -105
-11z"/>
<path d="M7080 2619 c-30 -4 -100 -10 -155 -14 -55 -3 -137 -8 -182 -11 l-83
-6 0 -679 0 -679 245 0 245 0 0 433 c0 448 5 524 42 609 48 111 165 146 195
58 9 -25 12 -182 12 -567 l1 -533 244 0 245 0 3 473 c4 459 4 474 26 540 27
79 74 133 126 142 48 10 66 4 90 -28 21 -28 21 -37 24 -578 l2 -549 245 0 245
0 0 555 c0 648 -2 667 -84 753 -100 107 -317 123 -488 36 -28 -14 -82 -56
-119 -93 l-69 -66 -37 54 c-21 31 -57 70 -81 88 -148 112 -394 71 -559 -94
l-63 -63 0 115 c0 63 -3 114 -7 114 -5 -1 -33 -5 -63 -10z"/>
<path d="M9335 2620 c-198 -28 -321 -94 -371 -198 -20 -43 -30 -153 -17 -202
l9 -35 114 -22 c63 -12 116 -20 118 -18 2 1 -4 31 -13 66 -21 80 -15 165 14
213 41 66 179 104 280 76 148 -40 177 -245 49 -342 -50 -38 -150 -86 -261
-125 -181 -63 -278 -124 -341 -216 -51 -76 -70 -152 -63 -257 7 -104 26 -160
75 -224 66 -87 190 -135 347 -136 128 0 231 38 312 116 26 25 49 40 51 34 9
-25 67 -82 101 -100 97 -49 280 -51 451 -5 51 14 96 27 98 30 5 4 -24 93 -36
112 -6 10 -16 10 -44 1 -53 -16 -87 -4 -104 37 -11 28 -14 117 -14 487 0 281
-4 467 -10 490 -27 95 -130 172 -275 204 -82 18 -381 27 -470 14z m250 -1093
c-20 -78 -47 -114 -96 -128 -59 -18 -89 -4 -119 56 -22 45 -25 62 -25 180 0
128 1 132 33 198 24 49 46 76 78 100 25 17 66 48 92 68 l47 36 3 -225 c2 -176
-1 -238 -13 -285z"/>
<path d="M14235 2615 c-321 -71 -520 -383 -502 -785 12 -243 79 -398 222 -505
102 -77 220 -113 400 -122 348 -16 549 111 600 381 9 44 12 83 8 86 -5 4 -44
17 -88 30 -44 12 -86 25 -92 27 -10 4 -13 -14 -13 -70 0 -206 -70 -311 -219
-324 -107 -10 -178 29 -229 124 -41 78 -61 163 -69 301 l-6 112 358 0 358 0
-6 118 c-18 356 -166 571 -432 627 -85 18 -209 18 -290 0z m220 -148 c21 -21
39 -54 49 -88 18 -64 36 -208 36 -296 l0 -63 -145 0 -145 0 0 78 c1 96 15 210
36 281 19 66 69 121 109 121 17 0 39 -12 60 -33z"/>
<path d="M6195 2605 c-66 -7 -162 -13 -212 -14 l-93 -1 0 -680 0 -680 245 0
245 0 0 695 0 695 -32 -2 c-18 0 -87 -7 -153 -13z"/>
<path d="M16295 2610 c-33 -4 -129 -11 -212 -15 l-153 -8 0 -909 0 -908 245 0
245 0 0 284 0 283 36 -33 c131 -124 337 -149 506 -63 107 54 193 191 231 367
18 81 21 130 21 297 -1 183 -3 208 -27 297 -50 187 -142 320 -265 380 -61 30
-74 33 -162 33 -85 0 -102 -3 -155 -29 -36 -18 -85 -54 -122 -93 l-63 -63 0
95 0 95 -32 -1 c-18 -1 -60 -5 -93 -9z m321 -205 c28 -19 60 -95 76 -180 17
-94 18 -524 0 -620 -20 -109 -41 -162 -73 -190 -37 -30 -68 -32 -103 -4 -65
51 -95 177 -103 429 -6 195 6 344 39 448 33 109 104 160 164 117z"/>
<path d="M10320 6724 c-36 -7 -103 -32 -150 -55 -69 -34 -102 -59 -170 -128
-134 -135 -190 -269 -190 -456 0 -111 18 -185 72 -295 77 -158 245 -292 419
-336 46 -11 133 -17 315 -21 l251 -6 6 354 c4 195 7 490 7 657 l0 302 -247 -1
c-172 0 -268 -5 -313 -15z"/>
</g>
</svg>
